<svg width="55" height="80" viewBox="0 0 55 80" fill="none" xmlns="http://www.w3.org/2000/svg">
<path d="M53.7451 33.8094C53.1297 32.8863 52.2067 32.2325 51.1298 32.0018C50.0529 31.771 48.9376 31.9633 48.0145 32.5787L35.5534 41.3091L34.7073 38.3477C34.515 37.6554 34.8227 36.8477 35.3996 36.4631L37.7841 34.8094C39.5148 33.5786 40.7071 31.771 41.0532 29.6557L41.2071 28.7711C41.6686 26.1174 39.8994 23.5405 37.2457 23.079L30.169 21.8483C28.6306 21.5791 27.1307 21.9252 25.8615 22.8098L22.4385 25.1943L11.1313 3.19512C10.4005 1.73364 9.05442 0.656749 7.51601 0.233688C5.93915 -0.227833 4.24691 0.00294143 2.86235 0.849064C1.47778 1.69519 0.477804 3.07974 0.131663 4.6566C-0.214478 6.23347 0.131672 7.92572 1.05472 9.23337L19.7848 35.8478C20.2079 36.4631 20.3617 37.2708 20.1694 38.0015L19.6309 40.1553L8.86211 32.6171L8.82366 32.5787C6.90066 31.3479 4.32382 31.8864 3.0931 33.8094C1.86237 35.7324 2.40082 38.3092 4.32383 39.5399L17.4387 48.7319L14.2081 61.3468C14.0542 61.9622 13.9389 62.616 13.8235 63.2314C13.0927 62.7314 12.2466 62.4622 11.3236 62.4622C8.86212 62.4622 6.82373 64.4621 6.82373 66.962C6.82373 69.4619 8.82366 71.4618 11.3236 71.4618C12.4389 71.4618 13.4773 71.0388 14.2465 70.3465C14.5542 71.5003 14.9773 72.6541 15.5542 73.7695L17.8618 78.3077C18.2079 79 18.4002 79.3462 18.4002 79.3462L18.7079 79.9615H36.4765L35.515 78.2693C34.2843 76.0771 32.3997 74.3464 30.169 73.3464C32.2843 72.1926 33.9766 70.308 34.8227 68.0389C37.8226 65.5005 39.5533 61.8853 39.7456 58.0777C41.7071 59.5392 42.8993 61.8853 42.8993 64.4236C42.8993 68.7696 39.361 72.3464 34.9765 72.3464V74.6156C37.938 74.6156 40.784 76.0386 42.5532 78.4616C42.8609 78.8847 43.0532 79.4231 43.0532 80H45.3223C45.3223 78.9616 44.9762 77.9231 44.3993 77.1155C43.207 75.5002 41.6301 74.231 39.8225 73.4233C43.0147 71.6926 45.1685 68.3081 45.1685 64.4621C45.1685 60.5776 43.0532 57.1162 39.5918 55.3855C39.4764 54.6163 39.3225 53.8856 39.0533 53.1164L37.9764 49.8088L52.4374 39.6938C54.4374 38.3092 55.0143 35.7324 53.7451 33.8094ZM11.3236 69.1542C10.1313 69.1542 9.13134 68.1543 9.13134 66.962C9.13134 65.7697 10.1313 64.7698 11.3236 64.7698C12.5158 64.7698 13.5158 65.7697 13.5158 66.962C13.5158 68.1543 12.5158 69.1542 11.3236 69.1542ZM35.5534 63.8852C35.2842 58.5008 30.8229 54.1548 25.3615 54.1548V56.4239C29.7075 56.4239 33.2843 59.9623 33.2843 64.3467C33.2843 68.7312 29.746 72.2695 25.3615 72.2695V74.5387C28.0537 74.5387 30.5921 75.6925 32.3613 77.6539H20.0925C20.0156 77.5385 19.9771 77.3847 19.9002 77.2693L17.5926 72.731C15.9003 69.385 15.4773 65.5775 16.4003 61.9237L19.4386 50.1165L22.0539 51.9241L23.3616 50.0396L5.63148 37.6169L5.593 37.5785C4.70842 37.0016 4.47766 35.8478 5.0161 35.0017C5.55454 34.1555 6.70835 33.8863 7.59294 34.4248L25.2846 46.8474L26.5922 44.9628L21.6309 41.5014L22.4001 38.5015C22.7462 37.117 22.477 35.6555 21.6693 34.4632L2.93927 7.84879C2.36237 7.04113 2.17007 6.04117 2.36237 5.0412C2.55467 4.04124 3.17003 3.23359 4.01615 2.69515C4.86227 2.1567 5.90068 2.04132 6.86218 2.31054C7.82369 2.57977 8.63137 3.23359 9.09289 4.11818L21.5924 28.4634L27.1691 24.5789C27.9384 24.0405 28.8614 23.8482 29.7844 24.002L36.8611 25.2328C36.938 25.2328 37.0149 25.2712 37.0534 25.2712C36.6688 25.3482 36.2842 25.5405 36.015 25.8097C35.6688 26.1943 35.515 26.6943 35.5534 27.1558C35.6304 27.8481 36.0919 28.425 36.7073 28.6557L36.6688 28.7327C36.2842 29.4634 35.5534 29.8865 34.7458 29.8865C33.9381 29.8865 33.2074 29.4249 32.8228 28.7327L30.7844 29.8095C31.5536 31.271 33.0535 32.1941 34.7458 32.1941C36.3611 32.1941 37.7841 31.3479 38.5918 29.9634C38.2072 31.1172 37.4764 32.0787 36.4765 32.8094L34.092 34.4632C32.7074 35.4247 32.0536 37.2323 32.5151 38.8477L34.6689 46.3858L37.0149 53.6163C38.1303 57.1931 37.5149 60.9238 35.5534 63.8852ZM51.2836 37.6554L37.3611 47.4243L36.8611 45.8474L36.2457 43.6552L49.2837 34.5017C49.7068 34.2325 50.2067 34.1555 50.6683 34.2709C51.1683 34.3863 51.5913 34.6555 51.8605 35.0786C52.399 35.9247 52.1297 37.0785 51.2836 37.6554Z" fill="#DA291C"/>
</svg>
